# xmcd CD database file
#
# Track frame offsets:
#	150
#	21370
#	35499
#	49817
#	61950
#	80620
#	90304
#	103703
#	119623
#	137968
#	146120
#	159157
#	171819
#	183844
#	205050
#	221745
#	237114
#	259684
#
# Disc length: 4055 seconds
#
# Revision: 1
# Processed by: cddbd v1.5.2PL0 Copyright (c) Steve Scherf et al.
# Submitted via: CDex 1.70beta2
#
DISCID=fd0fd512
DTITLE=Richard Pachman - Notre Dame
DYEAR=1900
DGENRE=New Age
TTITLE0=01. Notre Dame
TTITLE1=02. Greensleeves
TTITLE2=03. St. Germain
TTITLE3=04. Dimah
TTITLE4=05. Utes
TTITLE5=06. Tant que vivray
TTITLE6=07. Seine
TTITLE7=08. Odpusteni
TTITLE8=09. Louvre
TTITLE9=10. Pastime witch Good Company
TTITLE10=11. Amour
TTITLE11=12. Francis
TTITLE12=13. Podzim v Parizi
TTITLE13=14. Notre Dame CZ/FR
TTITLE14=15. St. Sulpice
TTITLE15=16. Regina
TTITLE16=17. St. Denis
TTITLE17=18. Dust
EXTD=
EXTT0=
EXTT1=
EXTT2=
EXTT3=
EXTT4=
EXTT5=
EXTT6=
EXTT7=
EXTT8=
EXTT9=
EXTT10=
EXTT11=
EXTT12=
EXTT13=
EXTT14=
EXTT15=
EXTT16=
EXTT17=
PLAYORDER=
